<?xml version="1.0" encoding="UTF-8"?>
<svg width="1156px" height="300px" viewBox="0 0 1156 300" version="1.1" xmlns="http://www.w3.org/2000/svg" xmlns:xlink="http://www.w3.org/1999/xlink">
    <title>compose-us-white</title>
    <desc></desc>
    <g id="compose-us-white" stroke="none" stroke-width="1" fill="none" fill-rule="evenodd">
        <path d="M59.2,199 C65.600032,199 71.266642,197.200018 76.2,193.6 C81.133358,189.999982 84.733322,185.333362 87,179.6 L103.2,179.6 C100.133318,189.466716 94.533374,197.39997 86.4,203.4 C77.866624,209.533364 67.733392,212.6 56,212.6 C41.33326,212.6 29.400046,207.60005 20.2,197.6 C11.266622,187.866618 6.8,175.66674 6.8,161 C6.8,146.33326 11.266622,134.133382 20.2,124.4 C29.400046,114.39995 41.33326,109.4 56,109.4 C67.733392,109.4 77.866624,112.466636 86.4,118.6 C94.533374,124.60003 100.133318,132.533284 103.2,142.4 L87,142.4 C84.733322,136.666638 81.133358,132.000018 76.2,128.4 C71.266642,124.799982 65.600032,123 59.2,123 C52.799968,123 47.366689,123.99999 42.9,126 C38.433311,128.00001 34.666682,130.733316 31.6,134.2 C25.066634,141.400036 21.8,150.33328 21.8,161 C21.8,171.66672 25.066634,180.599964 31.6,187.8 C38.2667,195.266704 47.466608,199 59.2,199 Z M165.2,109.4 C180.133408,109.4 192.26662,114.39995 201.6,124.4 C210.400044,134.000048 214.8,146.199926 214.8,161 C214.8,175.800074 210.400044,187.999952 201.6,197.6 C192.26662,207.60005 180.133408,212.6 165.2,212.6 C150.266592,212.6 138.13338,207.60005 128.8,197.6 C119.999956,187.999952 115.6,175.800074 115.6,161 C115.6,146.199926 119.999956,134.000048 128.8,124.4 C138.13338,114.39995 150.266592,109.4 165.2,109.4 Z M165.2,199 C176.000054,199 184.533302,195.266704 190.8,187.8 C196.80003,180.733298 199.8,171.800054 199.8,161 C199.8,150.199946 196.80003,141.266702 190.8,134.2 C184.533302,126.733296 176.000054,123 165.2,123 C154.399946,123 145.866698,126.733296 139.6,134.2 C133.59997,141.266702 130.6,150.199946 130.6,161 C130.6,171.800054 133.59997,180.733298 139.6,187.8 C145.866698,195.266704 154.399946,199 165.2,199 Z M249.6,126.2 C256.2667,114.999944 266.399932,109.4 280,109.4 C286.6667,109.4 292.833305,111.166649 298.5,114.7 C304.166695,118.233351 308.599984,123.199968 311.8,129.6 C316.333356,121.199958 323.399952,115.200018 333,111.6 C336.866686,110.133326 341.233309,109.4 346.1,109.4 C350.966691,109.4 355.633311,110.366657 360.1,112.3 C364.566689,114.233343 368.533316,116.999982 372,120.6 C379.466704,128.60004 383.2,138.59994 383.2,150.6 L383.2,211 L368.2,211 L368.2,151 C368.2,142.733292 365.86669,135.93336 361.2,130.6 C356.53331,125.533308 350.600036,123 343.4,123 C335.799962,123 329.466692,125.466642 324.4,130.4 C319.06664,135.466692 316.4,142.399956 316.4,151.2 L316.4,211 L301.4,211 L301.4,151 C301.4,142.733292 299.06669,135.93336 294.4,130.6 C289.73331,125.533308 283.800036,123 276.6,123 C268.999962,123 262.666692,125.466642 257.6,130.4 C252.26664,135.466692 249.6,142.399956 249.6,151.2 L249.6,211 L234.6,211 L234.6,111 L249.6,111 L249.6,126.2 Z M423.2,127 C431.20004,115.266608 443.133254,109.4 459,109.4 C473.400072,109.4 485.066622,114.39995 494,124.4 C502.933378,134.266716 507.4,146.466594 507.4,161 C507.4,175.533406 502.933378,187.733284 494,197.6 C485.066622,207.60005 473.066742,212.6 458,212.6 C442.933258,212.6 431.333374,206.666726 423.2,194.8 L423.2,250.6 L408.2,250.6 L408.2,111 L423.2,111 L423.2,127 Z M457,123 C446.199946,123 437.666698,126.733296 431.4,134.2 C425.39997,141.266702 422.4,150.199946 422.4,161 C422.4,171.800054 425.39997,180.733298 431.4,187.8 C437.666698,195.266704 446.199946,199 457,199 C467.66672,199 476.3333,195.266704 483,187.8 C489.266698,180.733298 492.4,171.800054 492.4,161 C492.4,150.199946 489.266698,141.266702 483,134.2 C476.3333,126.733296 467.66672,123 457,123 Z M570.4,109.4 C585.333408,109.4 597.46662,114.39995 606.8,124.4 C615.600044,134.000048 620,146.199926 620,161 C620,175.800074 615.600044,187.999952 606.8,197.6 C597.46662,207.60005 585.333408,212.6 570.4,212.6 C555.466592,212.6 543.33338,207.60005 534,197.6 C525.199956,187.999952 520.8,175.800074 520.8,161 C520.8,146.199926 525.199956,134.000048 534,124.4 C543.33338,114.39995 555.466592,109.4 570.4,109.4 Z M570.4,199 C581.200054,199 589.733302,195.266704 596,187.8 C602.00003,180.733298 605,171.800054 605,161 C605,150.199946 602.00003,141.266702 596,134.2 C589.733302,126.733296 581.200054,123 570.4,123 C559.599946,123 551.066698,126.733296 544.8,134.2 C538.79997,141.266702 535.8,150.199946 535.8,161 C535.8,171.800054 538.79997,180.733298 544.8,187.8 C551.066698,195.266704 559.599946,199 570.4,199 Z M698.6,137.8 C697.26666,127.399948 688.900077,122.2 673.5,122.2 C658.099923,122.2 650.4,126.999952 650.4,136.6 C650.4,140.60002 652.033317,143.633323 655.3,145.7 C658.566683,147.766677 662.666642,149.46666 667.6,150.8 C672.533358,152.13334 677.899971,153.366661 683.7,154.5 C689.500029,155.633339 694.866642,157.233323 699.8,159.3 C704.733358,161.366677 708.833317,164.199982 712.1,167.8 C715.366683,171.400018 717,176.333302 717,182.6 C717,192.333382 713.33337,199.766641 706,204.9 C698.66663,210.033359 688.733396,212.6 676.2,212.6 C662.8666,212.6 652.266706,209.2667 644.4,202.6 C637.199964,196.733304 633.333336,189.066714 632.8,179.6 L648.4,179.6 C649.333338,188.800046 654.533286,194.999984 664,198.2 C667.466684,199.266672 670.899983,199.8 674.3,199.8 C677.700017,199.8 680.866652,199.600002 683.8,199.2 C686.733348,198.799998 689.599986,198.066672 692.4,197 C698.800032,194.466654 702,190.133364 702,184 C702,179.866646 700.366683,176.700011 697.1,174.5 C693.833317,172.299989 689.733358,170.500007 684.8,169.1 C679.866642,167.699993 674.500029,166.433339 668.7,165.3 C662.899971,164.166661 657.533358,162.60001 652.6,160.6 C647.666642,158.59999 643.566683,155.866684 640.3,152.4 C637.033317,148.933316 635.4,144.133364 635.4,138 C635.4,128.933288 638.699967,121.900025 645.3,116.9 C651.900033,111.899975 661.666602,109.4 674.6,109.4 C686.866728,109.4 696.533298,112.333304 703.6,118.2 C709.466696,123.133358 712.866662,129.666626 713.8,137.8 L698.6,137.8 Z M780.8,199 C794.266734,199 803.933304,193.400056 809.8,182.2 L826.2,182.2 C822.733316,191.266712 817.233371,198.599972 809.7,204.2 C802.166629,209.800028 792.466726,212.6 780.6,212.6 C765.533258,212.6 753.266714,207.60005 743.8,197.6 C734.599954,187.866618 730,175.66674 730,161 C730,146.199926 734.399956,134.000048 743.2,124.4 C752.53338,114.39995 764.666592,109.4 779.6,109.4 C794.533408,109.4 806.66662,114.39995 816,124.4 C824.800044,134.000048 829.2,146.199926 829.2,161 L829.2,167 L745.4,167 C746.466672,176.200046 750.133302,183.79997 756.4,189.8 C762.800032,195.933364 770.933284,199 780.8,199 Z M779.6,123 C770.399954,123 762.666698,125.866638 756.4,131.6 C750.533304,137.066694 746.93334,144.199956 745.6,153 L813.6,153 C812.26666,144.199956 808.666696,137.066694 802.8,131.6 C796.533302,125.866638 788.800046,123 779.6,123 Z" id="compose" fill="#FFFFFF"></path>
        <g id="(us)" style="mix-blend-mode: screen;" transform="translate(859.000000, 0.000000)">
            <g id="circles">
                <circle id="Oval-5" fill="#2A21D3" style="mix-blend-mode: color-burn;" cx="157" cy="150" r="140"></circle>
                <circle id="Oval-5" fill="#D0021B" style="mix-blend-mode: color-burn;" cx="140" cy="160" r="140"></circle>
                <circle id="Oval-5" fill="#3AB53A" style="mix-blend-mode: multiply;" cx="140" cy="140" r="140"></circle>
            </g>
            <path d="M120.2,211 L120.2,195.4 C116.599982,200.200024 112.200026,204.26665 107,207.6 C101.799974,210.93335 95.8667,212.6 89.2,212.6 C82.5333,212.6 76.800024,211.666676 72,209.8 C67.199976,207.933324 63.000018,205.133352 59.4,201.4 C51.133292,193.266626 47,182.5334 47,169.2 L47,111 L62,111 L62,168.8 C62,178.000046 64.599974,185.333306 69.8,190.8 C75.000026,196.266694 81.733292,199 90,199 C98.400042,199 105.533304,196.200028 111.4,190.6 C117.266696,184.866638 120.2,177.533378 120.2,168.6 L120.2,111 L135.2,111 L135.2,211 L120.2,211 Z M220,137.8 C218.66666,127.399948 210.300077,122.2 194.9,122.2 C179.499923,122.2 171.8,126.999952 171.8,136.6 C171.8,140.60002 173.433317,143.633323 176.7,145.7 C179.966683,147.766677 184.066642,149.46666 189,150.8 C193.933358,152.13334 199.299971,153.366661 205.1,154.5 C210.900029,155.633339 216.266642,157.233323 221.2,159.3 C226.133358,161.366677 230.233317,164.199982 233.5,167.8 C236.766683,171.400018 238.4,176.333302 238.4,182.6 C238.4,192.333382 234.73337,199.766641 227.4,204.9 C220.06663,210.033359 210.133396,212.6 197.6,212.6 C184.2666,212.6 173.666706,209.2667 165.8,202.6 C158.599964,196.733304 154.733336,189.066714 154.2,179.6 L169.8,179.6 C170.733338,188.800046 175.933286,194.999984 185.4,198.2 C188.866684,199.266672 192.299983,199.8 195.7,199.8 C199.100017,199.8 202.266652,199.600002 205.2,199.2 C208.133348,198.799998 210.999986,198.066672 213.8,197 C220.200032,194.466654 223.4,190.133364 223.4,184 C223.4,179.866646 221.766683,176.700011 218.5,174.5 C215.233317,172.299989 211.133358,170.500007 206.2,169.1 C201.266642,167.699993 195.900029,166.433339 190.1,165.3 C184.299971,164.166661 178.933358,162.60001 174,160.6 C169.066642,158.59999 164.966683,155.866684 161.7,152.4 C158.433317,148.933316 156.8,144.133364 156.8,138 C156.8,128.933288 160.099967,121.900025 166.7,116.9 C173.300033,111.899975 183.066602,109.4 196,109.4 C208.266728,109.4 217.933298,112.333304 225,118.2 C230.866696,123.133358 234.266662,129.666626 235.2,137.8 L220,137.8 Z" id="us" stroke="#000000" fill="#FFFFFF"></path>
        </g>
    </g>
</svg>